<svg xmlns="http://www.w3.org/2000/svg" xmlns:xlink="http://www.w3.org/1999/xlink" width="1080" zoomAndPan="magnify" viewBox="0 0 810 809.999993" height="1080" preserveAspectRatio="xMidYMid meet" version="1.2"><g id="f1af2bd414"><path style=" stroke:none;fill-rule:evenodd;fill:#ffffff;fill-opacity:1;" d="M 120.566406 173.402344 C 75.320312 174.113281 61.054688 174.824219 59.433594 176.449219 C 57.714844 178.164062 57.316406 221.945312 57.316406 407.464844 C 57.316406 625.035156 57.460938 636.511719 60.226562 639.277344 C 62.867188 641.917969 66.941406 642.1875 103.964844 642.1875 C 142.5 642.1875 144.921875 642.011719 147.105469 639.023438 C 149.046875 636.375 149.421875 619.769531 149.421875 536.730469 C 149.421875 459.089844 149.859375 437.601562 151.4375 437.601562 C 153.253906 437.601562 175.503906 459.71875 175.503906 461.527344 C 175.503906 461.941406 181.1875 468.703125 188.136719 476.550781 C 195.085938 484.398438 204.804688 495.53125 209.738281 501.292969 C 214.667969 507.050781 222.4375 515.800781 227.003906 520.734375 C 231.570312 525.667969 241.058594 535.941406 248.082031 543.5625 C 268.4375 565.644531 292.566406 588.480469 307.546875 599.847656 C 334.519531 620.304688 373.828125 637.410156 402.914062 641.351562 C 419.46875 643.59375 460.789062 642.75 476.269531 639.851562 C 495.117188 636.324219 522.730469 625.585938 522.730469 621.785156 C 522.730469 620.902344 523.765625 620.183594 525.03125 620.183594 C 527.878906 620.183594 543.121094 608.601562 549.386719 601.679688 C 563.03125 586.601562 578.511719 562.410156 597.101562 527.117188 C 599.972656 521.667969 605.179688 516.980469 607.503906 517.753906 C 608.503906 518.085938 612.261719 524.949219 615.851562 533 C 619.4375 541.050781 624.050781 551.308594 626.101562 555.789062 C 632.078125 568.84375 638.472656 583.835938 638.472656 584.785156 C 638.472656 585.265625 640.96875 591.042969 644.019531 597.621094 C 647.066406 604.203125 651.894531 615.246094 654.742188 622.164062 C 657.59375 629.082031 661.386719 636.601562 663.171875 638.875 L 666.421875 643.003906 L 711.078125 643.003906 C 765.144531 643.003906 762.433594 644.394531 753.183594 621.386719 C 749.851562 613.105469 746.703125 605.957031 746.1875 605.511719 C 745.671875 605.0625 745.089844 603.960938 744.898438 603.066406 C 744.398438 600.761719 720.886719 546.769531 714.164062 532.5 C 711.085938 525.964844 708.570312 520.300781 708.570312 519.910156 C 708.570312 519.523438 706.804688 515.335938 704.644531 510.601562 C 701.980469 504.75 699.335938 498.894531 696.703125 493.027344 C 689.710938 477.402344 681.191406 471.835938 664.277344 471.835938 C 647.773438 471.835938 620.503906 480.859375 623.304688 485.394531 C 623.867188 486.300781 623.480469 486.5 622.425781 485.847656 C 620.605469 484.726562 602.421875 500.390625 603.007812 502.582031 C 603.160156 503.15625 601.113281 505.929688 598.464844 508.746094 C 595.8125 511.558594 587.105469 525.5 579.117188 539.71875 C 571.128906 553.9375 561.304688 570.535156 557.285156 576.597656 C 533.398438 612.644531 496.777344 632.566406 462.414062 628.199219 C 450.550781 626.691406 433.816406 621.359375 429.925781 617.847656 C 428.515625 616.578125 423.191406 612.707031 418.089844 609.246094 C 406.796875 601.585938 390.941406 586.527344 374.683594 568.015625 C 367.992188 560.394531 361.636719 553.425781 360.5625 552.53125 C 359.488281 551.632812 358.308594 550.035156 357.941406 548.976562 C 355.351562 541.570312 309.046875 495.273438 294.871094 485.921875 C 271.554688 470.535156 252.832031 465.386719 220.03125 465.34375 C 208.210938 465.328125 196.8125 464.660156 194.707031 463.859375 C 189.894531 462.03125 160.46875 432.203125 154.097656 422.699219 L 149.335938 415.59375 L 149.785156 334.902344 L 150.234375 254.207031 L 154.789062 241.980469 C 157.296875 235.257812 159.433594 228.839844 159.546875 227.71875 C 159.65625 226.597656 160.398438 225.679688 161.199219 225.679688 C 162 225.679688 162.199219 224.945312 161.648438 224.050781 C 161.09375 223.152344 161.417969 222.417969 162.367188 222.417969 C 163.3125 222.417969 164.09375 221.71875 164.09375 220.859375 C 164.09375 214.515625 183.996094 195.515625 197.5 188.972656 C 215.816406 180.101562 246.535156 178.710938 267.613281 185.800781 C 276.660156 188.84375 293.765625 199.800781 302.894531 208.402344 C 315.765625 220.527344 328.230469 244.230469 333.636719 266.863281 C 337.84375 284.46875 339.34375 314.128906 337.003906 333.269531 C 331.289062 379.980469 316.292969 408.660156 287.554688 427.847656 C 270.820312 439.027344 254.078125 443.082031 218.703125 444.535156 C 210.144531 444.886719 208.921875 445.347656 208.921875 448.199219 C 208.921875 451.273438 210.1875 451.488281 230.929688 451.992188 C 310.40625 453.925781 376.734375 428.59375 406.867188 384.796875 C 437.679688 340.015625 436.816406 281.136719 404.703125 237.089844 C 395.773438 224.84375 384.191406 212.636719 381.496094 212.636719 C 380.273438 212.636719 379.273438 211.890625 379.273438 210.976562 C 379.273438 210.0625 373.742188 205.699219 366.980469 201.289062 C 346.847656 188.144531 317.027344 177.980469 289.617188 174.914062 C 270.667969 172.796875 199.546875 172.160156 120.566406 173.402344 M 547.351562 182.074219 C 542.027344 196.085938 508.585938 270.976562 492.578125 304.742188 L 477.117188 337.347656 C 468.179688 356.203125 464.769531 363.648438 434.558594 430.265625 C 404.34375 496.90625 401.023438 506.949219 402.480469 527.328125 C 403.835938 546.289062 416.253906 562.746094 434.296875 569.496094 C 442.609375 572.605469 446.742188 573.140625 458.699219 572.664062 C 470.925781 572.179688 474.683594 571.304688 483.648438 566.875 C 496.261719 560.644531 509.703125 549.53125 520.519531 536.394531 C 524.875 531.105469 531.582031 523.035156 535.421875 518.460938 C 539.265625 513.886719 542.933594 509.410156 543.574219 508.515625 C 546.367188 504.601562 564.644531 483.695312 568.507812 479.988281 C 575.34375 473.429688 583.046875 467.164062 583.046875 468.160156 C 583.046875 468.667969 584.332031 467.9375 585.898438 466.539062 C 588.652344 464.085938 608.25 453.617188 611.574219 452.824219 C 629.511719 448.546875 646.277344 445.792969 654.476562 445.773438 C 665.988281 445.75 671.078125 443.808594 671.078125 439.441406 C 671.078125 437.824219 665.191406 423.726562 657.996094 408.117188 C 636.652344 361.808594 634.265625 356.53125 621.613281 327.566406 C 614.957031 312.324219 606.546875 293.617188 602.925781 285.996094 C 596.835938 273.179688 581.667969 239.460938 570.652344 214.269531 C 568.105469 208.441406 565.453125 203.425781 564.753906 203.128906 C 564.054688 202.828125 563.484375 201.414062 563.484375 199.984375 C 563.484375 198.550781 561.46875 193.113281 559.003906 187.890625 C 554.183594 177.6875 549.839844 175.515625 547.351562 182.074219 M 505.914062 300.335938 C 504.457031 301.945312 500.953125 308.363281 498.132812 314.597656 C 494.558594 322.464844 490.957031 330.320312 487.324219 338.160156 C 451.335938 415.761719 451.242188 416.054688 457.152344 429.105469 C 460.589844 436.699219 467.253906 442.527344 478.714844 447.972656 C 485.601562 451.242188 488.882812 451.484375 531.984375 451.847656 L 577.914062 452.234375 L 577.332031 447.769531 C 577.015625 445.316406 566.730469 420.566406 554.484375 392.773438 C 542.234375 364.976562 528.167969 333.066406 523.226562 321.859375 C 511.65625 295.617188 510.964844 294.757812 505.914062 300.335938 "/></g></svg>